<?xml version="1.0" encoding="utf-8"?>
<!-- Generator: Adobe Illustrator 18.0.0, SVG Export Plug-In . SVG Version: 6.00 Build 0)  -->
<!DOCTYPE svg PUBLIC "-//W3C//DTD SVG 1.1//EN" "http://www.w3.org/Graphics/SVG/1.1/DTD/svg11.dtd">
<svg version="1.1" id="Layer_1" xmlns="http://www.w3.org/2000/svg" xmlns:xlink="http://www.w3.org/1999/xlink" x="0px" y="0px"
	 viewBox="386.3 0 66.7 100" enable-background="new 386.3 0 66.7 100" xml:space="preserve">
<polyline fill="#1C1C1C" points="453,100 386.3,50 453,0 "/>
<g>
	<path fill="#FFFFFF" d="M442.4,41.2l-20,20c-0.5,0.5-1.3,0.5-1.8,0l-0.6-0.6c-0.5-0.5-0.5-1.3,0-1.8l20-20c0.5-0.5,1.3-0.5,1.8,0
		l0.6,0.6C442.9,39.9,442.9,40.7,442.4,41.2z"/>
	<path fill="#FFFFFF" d="M440.1,61.2l-20-20c-0.5-0.5-0.5-1.3,0-1.8l0.6-0.6c0.5-0.5,1.3-0.5,1.8,0l20,20c0.5,0.5,0.5,1.3,0,1.8
		l-0.6,0.6C441.4,61.7,440.6,61.7,440.1,61.2z"/>
</g>
</svg>
