<?xml version="1.0" encoding="utf-8"?>
<!-- Generator: Adobe Illustrator 18.0.0, SVG Export Plug-In . SVG Version: 6.00 Build 0)  -->
<!DOCTYPE svg PUBLIC "-//W3C//DTD SVG 1.1//EN" "http://www.w3.org/Graphics/SVG/1.1/DTD/svg11.dtd">
<svg version="1.1" id="Layer_1" xmlns="http://www.w3.org/2000/svg" xmlns:xlink="http://www.w3.org/1999/xlink" x="0px" y="0px"
	 viewBox="-94.6 -18.7 223 87" enable-background="new -94.6 -18.7 223 87" xml:space="preserve">
<g>
	<path fill="#FFFFFF" d="M-64.7-18.4v7.4h-17.1v9.7h13.1V6h-13.1v9.9h17.1v7.4h-26.9v-41.7H-64.7z"/>
	<path fill="#FFFFFF" d="M-52.4,7.9v15.4h-9.7v-41.7h13.6c3,0,5.6,0.3,7.7,0.9c2.1,0.6,3.9,1.5,5.2,2.6c1.3,1.1,2.3,2.4,2.9,3.9
		c0.6,1.5,0.9,3.2,0.9,4.9c0,1.4-0.2,2.6-0.5,3.8c-0.4,1.2-0.9,2.3-1.6,3.3c-0.7,1-1.6,1.9-2.6,2.7s-2.2,1.5-3.6,2
		c0.6,0.3,1.3,0.7,1.8,1.2s1.1,1.1,1.5,1.7l8.9,14.5h-8.8c-1.6,0-2.8-0.6-3.5-1.8l-6.9-12.1c-0.3-0.5-0.7-0.9-1.1-1.1
		c-0.4-0.2-1-0.3-1.7-0.3H-52.4z M-52.4,1.3h3.9c1.3,0,2.4-0.2,3.4-0.5c0.9-0.3,1.7-0.8,2.3-1.4c0.6-0.6,1-1.3,1.3-2.1
		c0.3-0.8,0.4-1.6,0.4-2.6c0-1.8-0.6-3.3-1.8-4.3c-1.2-1-3-1.5-5.5-1.5h-3.9V1.3z"/>
	<path fill="#FFFFFF" d="M-16.2,23.4H-26v-41.7h9.7V23.4z"/>
	<path fill="#FFFFFF" d="M16.7,12.6c0.2,0,0.5,0,0.7,0.1c0.2,0.1,0.4,0.2,0.7,0.4l3.8,4c-1.7,2.2-3.8,3.9-6.3,5
		c-2.5,1.1-5.5,1.7-9,1.7c-3.2,0-6-0.5-8.5-1.6c-2.5-1.1-4.6-2.6-6.4-4.5s-3.1-4.2-4-6.8c-0.9-2.6-1.4-5.4-1.4-8.5
		c0-3.1,0.5-6,1.6-8.6s2.6-4.9,4.5-6.7c1.9-1.9,4.2-3.4,6.9-4.4c2.7-1.1,5.6-1.6,8.9-1.6c1.6,0,3,0.1,4.4,0.4
		c1.4,0.3,2.7,0.7,3.9,1.1c1.2,0.5,2.3,1.1,3.3,1.7c1,0.7,1.9,1.4,2.7,2.2l-3.3,4.4c-0.2,0.3-0.5,0.5-0.7,0.7
		c-0.3,0.2-0.7,0.3-1.2,0.3c-0.3,0-0.7-0.1-1-0.2c-0.3-0.2-0.6-0.3-1-0.6c-0.3-0.2-0.7-0.5-1.1-0.7c-0.4-0.3-0.9-0.5-1.5-0.7
		c-0.6-0.2-1.2-0.4-2-0.6C9.9-10.8,9-10.8,8-10.8c-1.8,0-3.4,0.3-4.8,0.9C1.7-9.3,0.5-8.4-0.5-7.2C-1.6-6.1-2.4-4.7-3-3
		c-0.6,1.6-0.9,3.5-0.9,5.5c0,2.1,0.3,4,0.9,5.7c0.6,1.7,1.4,3.1,2.4,4.2c1,1.1,2.2,2,3.5,2.6c1.3,0.6,2.8,0.9,4.3,0.9
		c0.9,0,1.7,0,2.4-0.1c0.7-0.1,1.4-0.2,2-0.4c0.6-0.2,1.2-0.5,1.8-0.8c0.6-0.3,1.1-0.8,1.7-1.2c0.2-0.2,0.5-0.3,0.7-0.5
		C16.1,12.6,16.4,12.6,16.7,12.6z"/>
	<path fill="#FFFFFF" d="M-68.3,34.6c-0.3,0.5-0.6,0.8-0.9,1c-0.3,0.2-0.7,0.3-1.2,0.3c-0.4,0-0.9-0.1-1.4-0.4s-1.1-0.6-1.7-0.9
		c-0.6-0.3-1.4-0.7-2.2-0.9c-0.8-0.3-1.8-0.4-2.8-0.4c-1.8,0-3.2,0.4-4.1,1.2c-0.9,0.8-1.3,1.8-1.3,3.1c0,0.8,0.3,1.5,0.8,2.1
		c0.5,0.6,1.2,1,2.1,1.4c0.9,0.4,1.9,0.8,3,1.1c1.1,0.3,2.3,0.7,3.4,1.1c1.2,0.4,2.3,0.9,3.4,1.4c1.1,0.6,2.1,1.3,3,2.1
		c0.9,0.9,1.6,1.9,2.1,3.1s0.8,2.7,0.8,4.5c0,1.9-0.3,3.7-1,5.4c-0.7,1.7-1.6,3.1-2.9,4.4c-1.3,1.3-2.8,2.2-4.7,2.9
		c-1.9,0.7-4,1.1-6.3,1.1c-1.3,0-2.6-0.1-4-0.4c-1.3-0.3-2.6-0.6-3.9-1.1c-1.3-0.5-2.4-1.1-3.6-1.7c-1.1-0.7-2.1-1.4-2.9-2.2
		l2.9-4.5c0.2-0.3,0.5-0.6,0.9-0.8c0.4-0.2,0.8-0.3,1.2-0.3c0.6,0,1.2,0.2,1.7,0.5c0.6,0.4,1.2,0.8,2,1.2c0.7,0.4,1.6,0.8,2.5,1.2
		c1,0.4,2.1,0.5,3.4,0.5c1.8,0,3.1-0.4,4.1-1.2c1-0.8,1.5-2,1.5-3.7c0-1-0.3-1.8-0.8-2.4c-0.5-0.6-1.2-1.1-2.1-1.5
		c-0.9-0.4-1.9-0.8-3-1.1c-1.1-0.3-2.2-0.6-3.4-1c-1.2-0.4-2.3-0.8-3.4-1.4c-1.1-0.5-2.1-1.3-3-2.1c-0.9-0.9-1.6-2-2.1-3.3
		c-0.5-1.3-0.8-3-0.8-4.9c0-1.6,0.3-3.1,0.9-4.6c0.6-1.5,1.6-2.8,2.8-4c1.2-1.2,2.7-2.1,4.5-2.8c1.8-0.7,3.8-1,6.1-1
		c1.3,0,2.5,0.1,3.7,0.3c1.2,0.2,2.4,0.5,3.5,0.9c1.1,0.4,2.1,0.9,3.1,1.4c0.9,0.5,1.8,1.2,2.5,1.8L-68.3,34.6z"/>
	<path fill="#FFFFFF" d="M-26.9,67.8h-9.7V50.2h-17v17.6h-9.7V26.1h9.7v17.4h17V26.1h9.7V67.8z"/>
	<path fill="#FFFFFF" d="M3.9,26.1v7.5h-17.1v9.7h13.1v7.2h-13.1v9.9H3.9v7.4h-26.9V26.1H3.9z"/>
	<path fill="#FFFFFF" d="M16.3,60.1h15.5v7.7H6.6V26.1h9.7V60.1z"/>
	<path fill="#FFFFFF" d="M43.1,60.1h15.5v7.7H33.4V26.1h9.7V60.1z"/>
</g>
</svg>
