<?xml version="1.0" encoding="utf-8"?>
<!-- Generator: Adobe Illustrator 18.0.0, SVG Export Plug-In . SVG Version: 6.00 Build 0)  -->
<!DOCTYPE svg PUBLIC "-//W3C//DTD SVG 1.1//EN" "http://www.w3.org/Graphics/SVG/1.1/DTD/svg11.dtd">
<svg version="1.1" id="Layer_1" xmlns="http://www.w3.org/2000/svg" xmlns:xlink="http://www.w3.org/1999/xlink" x="0px" y="0px"
	 viewBox="386.3 0 66.7 100" enable-background="new 386.3 0 66.7 100" xml:space="preserve">
<polyline fill="#1C1C1C" points="453,100 386.3,50 453,0 "/>
<path fill="#FFFFFF" d="M444.5,41.1h-28.3c-0.7,0-1.2-0.6-1.2-1.2V39c0-0.7,0.6-1.2,1.2-1.2h28.3c0.7,0,1.2,0.6,1.2,1.2v0.8
	C445.8,40.5,445.2,41.1,444.5,41.1z"/>
<path fill="#FFFFFF" d="M444.5,48.1h-28.3c-0.7,0-1.2-0.6-1.2-1.2v-0.8c0-0.7,0.6-1.2,1.2-1.2h28.3c0.7,0,1.2,0.6,1.2,1.2v0.8
	C445.8,47.6,445.2,48.1,444.5,48.1z"/>
<path fill="#FFFFFF" d="M444.5,55.2h-28.3c-0.7,0-1.2-0.6-1.2-1.2v-0.8c0-0.7,0.6-1.2,1.2-1.2h28.3c0.7,0,1.2,0.6,1.2,1.2v0.8
	C445.8,54.6,445.2,55.2,444.5,55.2z"/>
<path fill="#FFFFFF" d="M444.5,62.2h-28.3c-0.7,0-1.2-0.6-1.2-1.2v-0.8c0-0.7,0.6-1.2,1.2-1.2h28.3c0.7,0,1.2,0.6,1.2,1.2V61
	C445.8,61.7,445.2,62.2,444.5,62.2z"/>
</svg>
