<?xml version="1.0" encoding="utf-8"?>
<!-- Generator: Adobe Illustrator 18.1.1, SVG Export Plug-In . SVG Version: 6.00 Build 0)  -->
<svg version="1.1" id="Capa_1" xmlns="http://www.w3.org/2000/svg" xmlns:xlink="http://www.w3.org/1999/xlink" x="0px" y="0px"
	 viewBox="332.2 -574.6 1809.8 904.9" enable-background="new 332.2 -574.6 1809.8 904.9" xml:space="preserve">
<circle fill="#FFFFFF" cx="1689.6" cy="-122.1" r="452.4"/>
<path fill="#17171A" d="M1938.9-336.6h-498.7c-14.4,0-26.1,9.9-26.1,22.1V70.2c0,12.2,11.7,22.1,26.1,22.1h498.7
	c14.4,0,26.1-9.9,26.1-22.1v-384.7C1965-326.7,1953.3-336.6,1938.9-336.6z M1725.2,30.4H1548c-14.4,0-26.1-9.9-26.1-22.1
	s11.7-22.1,26.1-22.1h177.2c14.4,0,26.1,9.9,26.1,22.1S1739.6,30.4,1725.2,30.4z M1829.4-56.6H1548c-14.4,0-26.1-9.9-26.1-22.1
	s11.7-22.1,26.1-22.1h281.5c14.4,0,26.1,9.9,26.1,22.1S1843.8-56.6,1829.4-56.6z M1829.4-142H1548c-14.4,0-26.1-9.9-26.1-22.1
	s11.7-22.1,26.1-22.1h281.5c14.4,0,26.1,9.9,26.1,22.1S1843.8-142,1829.4-142z M1829.4-229H1548c-14.4,0-26.1-9.9-26.1-22.1
	s11.7-22.1,26.1-22.1h281.5c14.4,0,26.1,9.9,26.1,22.1S1843.8-229,1829.4-229z"/>
<circle fill="#FFFFFF" cx="784.7" cy="-122.1" r="452.4"/>
<g>
	<path fill="#17171A" d="M1025.1-336.3H544.3c-19.3,0-35,15.7-35,35V57.1c0,19.3,15.7,35,35,35h480.9c19.3,0,35-15.7,35-35v-358.5
		C1060.1-320.7,1044.4-336.3,1025.1-336.3z M1025.1-301.4V-47l-68.9-62.7c-10.4-9.4-26.3-9-36.2,0.9l-69.8,69.7L712.7-203.4
		c-10.4-12.4-29.4-12.5-40-0.3L544.3-54.3v-247H1025.1z M876.5-209.6c0-26.6,21.5-48.1,48.1-48.1c26.6,0,48.1,21.5,48.1,48.1
		s-21.5,48.1-48.1,48.1C898-161.5,876.5-183,876.5-209.6z"/>
</g>
</svg>
