<?xml version="1.0" encoding="utf-8"?>
<!-- Generator: Adobe Illustrator 18.1.1, SVG Export Plug-In . SVG Version: 6.00 Build 0)  -->
<svg version="1.1" id="Capa_1" xmlns="http://www.w3.org/2000/svg" xmlns:xlink="http://www.w3.org/1999/xlink" x="0px" y="0px"
	 viewBox="287.1 -622.1 1900 1000" enable-background="new 287.1 -622.1 1900 1000" xml:space="preserve">
<g>
	<circle fill="#FFFFFF" cx="1712.1" cy="-122.1" r="452.4"/>
	<path fill="#17171A" d="M1961.5-336.6h-498.7c-14.4,0-26.1,9.9-26.1,22.1V70.2c0,12.2,11.7,22.1,26.1,22.1h498.7
		c14.4,0,26.1-9.9,26.1-22.1v-384.7C1987.5-326.7,1975.8-336.6,1961.5-336.6z M1747.7,30.4h-177.2c-14.4,0-26.1-9.9-26.1-22.1
		s11.7-22.1,26.1-22.1h177.2c14.4,0,26.1,9.9,26.1,22.1S1762.1,30.4,1747.7,30.4z M1852-56.6h-281.5c-14.4,0-26.1-9.9-26.1-22.1
		s11.7-22.1,26.1-22.1H1852c14.4,0,26.1,9.9,26.1,22.1S1866.4-56.6,1852-56.6z M1852-142h-281.5c-14.4,0-26.1-9.9-26.1-22.1
		c0-12.2,11.7-22.1,26.1-22.1H1852c14.4,0,26.1,9.9,26.1,22.1C1878.1-151.9,1866.4-142,1852-142z M1852-229h-281.5
		c-14.4,0-26.1-9.9-26.1-22.1s11.7-22.1,26.1-22.1H1852c14.4,0,26.1,9.9,26.1,22.1S1866.4-229,1852-229z"/>
</g>
<g>
	<circle fill="#FFFFFF" cx="762.1" cy="-122.1" r="452.4"/>
	<g>
		<path fill="#17171A" d="M1002.6-336.3H521.7c-19.3,0-35,15.7-35,35V57.1c0,19.3,15.7,35,35,35h480.9c19.3,0,35-15.7,35-35v-358.5
			C1037.5-320.7,1021.9-336.3,1002.6-336.3z M1002.6-301.4V-47l-68.9-62.7c-10.4-9.4-26.3-9-36.2,0.9l-69.8,69.7L690.2-203.4
			c-10.4-12.4-29.4-12.5-40-0.3L521.7-54.3v-247H1002.6z M853.9-209.6c0-26.6,21.5-48.1,48.1-48.1c26.6,0,48.1,21.5,48.1,48.1
			s-21.5,48.1-48.1,48.1C875.5-161.5,853.9-183,853.9-209.6z"/>
	</g>
</g>
</svg>
