<?xml version="1.0" encoding="utf-8"?>
<!-- Generator: Adobe Illustrator 18.1.1, SVG Export Plug-In . SVG Version: 6.00 Build 0)  -->
<svg version="1.1" id="Layer_1" xmlns="http://www.w3.org/2000/svg" xmlns:xlink="http://www.w3.org/1999/xlink" x="0px" y="0px"
	 viewBox="0 9 30 12" enable-background="new 0 9 30 12" xml:space="preserve">
<g>
	<path fill="#C0C0CC" d="M9,15c-0.8,0-1.5-0.3-2.1-0.9C6.3,13.5,6,12.8,6,12c0-0.8,0.3-1.5,0.9-2.1C7.4,9.3,8.2,9,9,9
		c0.8,0,1.5,0.3,2.1,0.9c0.6,0.6,0.9,1.3,0.9,2.1c0,0.8-0.3,1.5-0.9,2.1C10.5,14.7,9.8,15,9,15z M9,9.7c-0.7,0-1.2,0.2-1.7,0.7
		c-0.4,0.4-0.7,1-0.7,1.7c0,0.6,0.2,1.2,0.7,1.7c0.5,0.5,1,0.7,1.7,0.7c0.6,0,1.2-0.2,1.7-0.7c0.5-0.5,0.7-1,0.7-1.6
		c0-0.7-0.2-1.2-0.7-1.7C10.2,9.9,9.6,9.7,9,9.7z M8,12.8c-0.2,0-0.4-0.1-0.6-0.2c-0.2-0.2-0.2-0.4-0.2-0.6c0-0.2,0.1-0.4,0.2-0.6
		c0.2-0.2,0.4-0.2,0.6-0.2c0.2,0,0.4,0.1,0.6,0.2c0.2,0.2,0.2,0.4,0.2,0.6c0,0.2-0.1,0.4-0.2,0.6C8.4,12.8,8.2,12.8,8,12.8z M8,11.5
		c-0.1,0-0.3,0-0.4,0.1c-0.1,0.1-0.1,0.2-0.1,0.4c0,0.1,0,0.3,0.1,0.4c0.1,0.1,0.2,0.1,0.4,0.1c0.1,0,0.3,0,0.4-0.1
		c0.1-0.1,0.1-0.2,0.1-0.4c0-0.1,0-0.3-0.1-0.4C8.3,11.6,8.1,11.5,8,11.5z M10,12.8c-0.2,0-0.4-0.1-0.6-0.2
		c-0.2-0.2-0.2-0.4-0.2-0.6c0-0.2,0.1-0.4,0.2-0.6c0.2-0.2,0.4-0.2,0.6-0.2c0.2,0,0.4,0.1,0.6,0.2c0.2,0.2,0.2,0.4,0.2,0.6
		c0,0.2-0.1,0.4-0.2,0.6C10.4,12.8,10.2,12.8,10,12.8z"/>
</g>
<g>
	<path id="github-icon_1_" fill="#C0C0CC" d="M3,9.1c-1.7,0-3,1.3-3,3c0,1.3,0.9,2.5,2.1,2.9c0.2,0,0.2-0.1,0.2-0.1v-0.6
		c-0.8,0.2-1-0.4-1-0.4c-0.1-0.3-0.3-0.4-0.3-0.4c-0.3-0.2,0-0.2,0-0.2c0.3,0,0.5,0.3,0.5,0.3c0.3,0.5,0.7,0.3,0.9,0.2
		c0-0.2,0.1-0.3,0.2-0.4c-0.7-0.1-1.4-0.3-1.4-1.5c0-0.3,0.1-0.6,0.3-0.8c0-0.1-0.1-0.4,0-0.8c0,0,0.3-0.1,0.8,0.3
		c0.2-0.1,0.5-0.1,0.8-0.1s0.5,0,0.8,0.1c0.6-0.4,0.8-0.3,0.8-0.3c0.2,0.4,0.1,0.7,0,0.8c0.2,0.2,0.3,0.5,0.3,0.8
		c0,1.2-0.7,1.4-1.4,1.5c0.1,0.1,0.2,0.3,0.2,0.6c0,0.4,0,0.7,0,0.8c0,0.1,0,0.2,0.2,0.1C5.1,14.5,6,13.4,6,12.1
		C6,10.4,4.7,9.1,3,9.1z"/>
</g>
<g>
	<title>Layer 1</title>
	<path fill="#C0C0CC" d="M22.5,9h-3C18.7,9,18,9.7,18,10.5v3c0,0.8,0.7,1.5,1.5,1.5h3c0.8,0,1.5-0.7,1.5-1.5v-3
		C24,9.7,23.3,9,22.5,9L22.5,9z M23.4,13.5c0,0.5-0.4,0.9-0.9,0.9h-3c-0.5,0-0.9-0.4-0.9-0.9v-1.9h1.2c-0.1,0.2-0.1,0.4-0.1,0.6
		c0,0.8,0.6,1.4,1.4,1.4s1.4-0.6,1.4-1.4c0-0.2,0-0.4-0.1-0.6h1.1V13.5L23.4,13.5z M20.4,12.2c0-0.3,0.3-0.6,0.6-0.6
		c0.3,0,0.6,0.3,0.6,0.6c0,0.3-0.3,0.6-0.6,0.6C20.7,12.8,20.4,12.5,20.4,12.2L20.4,12.2z M23.4,11h-1.6c-0.2-0.2-0.5-0.3-0.8-0.3
		s-0.6,0.1-0.8,0.3h-1.6v-0.5c0-0.5,0.4-0.9,0.9-0.9h3c0.5,0,0.9,0.4,0.9,0.9V11L23.4,11L23.4,11z M22.8,9.9h-0.5
		c-0.1,0-0.2,0.1-0.2,0.2v0.5c0,0.1,0.1,0.2,0.2,0.2h0.5c0.1,0,0.2-0.1,0.2-0.2v-0.5C23,10,22.9,9.9,22.8,9.9L22.8,9.9z"/>
</g>
<g>
	<title>Layer 1</title>
	<path fill="#C0C0CC" d="M18,10.6c0,0.6-0.4,1.4-1.2,2.4c-0.8,1.1-1.5,1.6-2.1,1.6c-0.4,0-0.6-0.3-0.9-1l-0.5-1.8
		c-0.2-0.6-0.4-1-0.6-1c0,0-0.2,0.1-0.5,0.3L12,10.8c0.3-0.3,0.6-0.5,0.9-0.8c0.4-0.3,0.7-0.5,0.9-0.5c0.5,0,0.8,0.3,0.9,1
		c0.1,0.7,0.2,1.2,0.2,1.4c0.1,0.6,0.3,0.9,0.4,0.9c0.1,0,0.3-0.2,0.6-0.6c0.2-0.4,0.4-0.7,0.4-0.9c0-0.3-0.1-0.5-0.4-0.5
		c-0.1,0-0.3,0-0.4,0.1c0.3-1,0.9-1.4,1.7-1.4C17.7,9.4,18,9.8,18,10.6L18,10.6z"/>
</g>
<g>
	<path fill="#C0C0CC" d="M28.7,15h-3.4c-0.4,0-0.5-0.4-0.6-0.5l0-4.8c0-0.4,0.3-0.5,0.6-0.6l3,0l1,1v4.4C29.3,14.8,28.9,15,28.7,15
		L28.7,15z M25.3,9.4c0,0-0.2,0-0.2,0.2v4.8c0,0,0,0.2,0.2,0.2h3.3c0,0,0.2,0,0.2-0.2v-4.2l-0.7-0.8H25.3z"/>
	<polygon fill="#C0C0CC" points="29.1,10.3 28,10.3 28,9.2 28.4,9.2 28.4,9.9 29.1,9.9 	"/>
	<rect x="25.4" y="9.9" fill="#C0C0CC" width="0.7" height="0.4"/>
	<rect x="26.4" y="9.9" fill="#C0C0CC" width="1.4" height="0.4"/>
	<rect x="26.4" y="10.8" fill="#C0C0CC" width="2.1" height="0.4"/>
	<rect x="26.4" y="11.8" fill="#C0C0CC" width="2.1" height="0.4"/>
	<rect x="26.4" y="12.7" fill="#C0C0CC" width="2.1" height="0.4"/>
	<rect x="26.4" y="13.7" fill="#C0C0CC" width="2.1" height="0.4"/>
</g>
<g>
	<g>
		<path fill="#FFFFFF" d="M9,21c-0.8,0-1.5-0.3-2.1-0.9C6.3,19.5,6,18.8,6,18c0-0.8,0.3-1.5,0.9-2.1C7.4,15.3,8.2,15,9,15
			c0.8,0,1.5,0.3,2.1,0.9c0.6,0.6,0.9,1.3,0.9,2.1c0,0.8-0.3,1.5-0.9,2.1C10.5,20.7,9.8,21,9,21z M9,15.7c-0.7,0-1.2,0.2-1.7,0.7
			c-0.4,0.5-0.7,1-0.7,1.7c0,0.6,0.2,1.2,0.7,1.7c0.5,0.5,1,0.7,1.7,0.7c0.6,0,1.2-0.2,1.7-0.7c0.5-0.5,0.7-1,0.7-1.6
			c0-0.7-0.2-1.2-0.7-1.7C10.2,15.9,9.6,15.7,9,15.7z M8,18.8c-0.2,0-0.4-0.1-0.6-0.2c-0.2-0.2-0.2-0.4-0.2-0.6s0.1-0.4,0.2-0.6
			c0.2-0.2,0.4-0.2,0.6-0.2c0.2,0,0.4,0.1,0.6,0.2c0.2,0.2,0.2,0.4,0.2,0.6s-0.1,0.4-0.2,0.6C8.4,18.8,8.2,18.8,8,18.8z M8,17.5
			c-0.1,0-0.3,0-0.4,0.1c-0.1,0.1-0.1,0.2-0.1,0.4c0,0.1,0,0.3,0.1,0.4c0.1,0.1,0.2,0.1,0.4,0.1c0.1,0,0.3,0,0.4-0.1
			c0.1-0.1,0.1-0.2,0.1-0.4c0-0.1,0-0.3-0.1-0.4C8.3,17.6,8.1,17.5,8,17.5z M10,18.8c-0.2,0-0.4-0.1-0.6-0.2
			c-0.2-0.2-0.2-0.4-0.2-0.6s0.1-0.4,0.2-0.6c0.2-0.2,0.4-0.2,0.6-0.2c0.2,0,0.4,0.1,0.6,0.2c0.2,0.2,0.2,0.4,0.2,0.6
			s-0.1,0.4-0.2,0.6C10.4,18.8,10.2,18.8,10,18.8z"/>
	</g>
	<g>
		<path id="github-icon_2_" fill="#FFFFFF" d="M3,15.1c-1.7,0-3,1.3-3,3c0,1.3,0.9,2.5,2.1,2.9c0.2,0,0.2-0.1,0.2-0.1v-0.6
			c-0.8,0.2-1-0.4-1-0.4c-0.1-0.3-0.3-0.4-0.3-0.4c-0.3-0.2,0-0.2,0-0.2c0.3,0,0.5,0.3,0.5,0.3c0.3,0.5,0.7,0.3,0.9,0.2
			c0-0.2,0.1-0.3,0.2-0.4c-0.7-0.1-1.4-0.3-1.4-1.5c0-0.3,0.1-0.6,0.3-0.8c0-0.1-0.1-0.4,0-0.8c0,0,0.3-0.1,0.8,0.3
			c0.2-0.1,0.5-0.1,0.8-0.1s0.5,0,0.8,0.1c0.6-0.4,0.8-0.3,0.8-0.3c0.2,0.4,0.1,0.7,0,0.8c0.2,0.2,0.3,0.5,0.3,0.8
			c0,1.2-0.7,1.4-1.4,1.5c0.1,0.1,0.2,0.3,0.2,0.6c0,0.4,0,0.7,0,0.8c0,0.1,0,0.2,0.2,0.1c1.2-0.4,2-1.5,2-2.9
			C6,16.4,4.7,15.1,3,15.1z"/>
	</g>
	<g>
		<title>Layer 1</title>
		<path fill="#FFFFFF" d="M22.5,15h-3c-0.8,0-1.5,0.7-1.5,1.5v3c0,0.8,0.7,1.5,1.5,1.5h3c0.8,0,1.5-0.7,1.5-1.5v-3
			C24,15.7,23.3,15,22.5,15L22.5,15z M23.4,19.5c0,0.5-0.4,0.9-0.9,0.9h-3c-0.5,0-0.9-0.4-0.9-0.9v-1.9h1.2
			c-0.1,0.2-0.1,0.4-0.1,0.6c0,0.8,0.6,1.4,1.4,1.4s1.4-0.6,1.4-1.4c0-0.2,0-0.4-0.1-0.6h1.1V19.5L23.4,19.5z M20.4,18.2
			c0-0.3,0.3-0.6,0.6-0.6c0.3,0,0.6,0.3,0.6,0.6c0,0.3-0.3,0.6-0.6,0.6C20.7,18.8,20.4,18.5,20.4,18.2L20.4,18.2z M23.4,17h-1.6
			c-0.2-0.2-0.5-0.3-0.8-0.3s-0.6,0.1-0.8,0.3h-1.6v-0.5c0-0.5,0.4-0.9,0.9-0.9h3c0.5,0,0.9,0.4,0.9,0.9V17L23.4,17L23.4,17z
			 M22.8,15.9h-0.5c-0.1,0-0.2,0.1-0.2,0.2v0.5c0,0.1,0.1,0.2,0.2,0.2h0.5c0.1,0,0.2-0.1,0.2-0.2v-0.5C23,16,22.9,15.9,22.8,15.9
			L22.8,15.9z"/>
	</g>
	<g>
		<title>Layer 1</title>
		<path fill="#FFFFFF" d="M18,16.6c0,0.6-0.4,1.4-1.2,2.4c-0.8,1.1-1.5,1.6-2.1,1.6c-0.4,0-0.6-0.3-0.9-1l-0.5-1.8
			c-0.2-0.6-0.4-1-0.6-1c0,0-0.2,0.1-0.5,0.3L12,16.8c0.3-0.3,0.6-0.5,0.9-0.8c0.4-0.3,0.7-0.5,0.9-0.5c0.5,0,0.8,0.3,0.9,1
			c0.1,0.7,0.2,1.2,0.2,1.4c0.1,0.6,0.3,0.9,0.4,0.9c0.1,0,0.3-0.2,0.6-0.6c0.2-0.4,0.4-0.7,0.4-0.9c0-0.3-0.1-0.5-0.4-0.5
			c-0.1,0-0.3,0-0.4,0.1c0.3-1,0.9-1.4,1.7-1.4C17.7,15.4,18,15.8,18,16.6L18,16.6z"/>
	</g>
	<path fill="#FFFFFF" d="M28.8,21h-3.4c-0.4,0-0.5-0.4-0.6-0.5l0-4.8c0-0.4,0.3-0.5,0.6-0.6l3,0l1,1v4.4C29.3,20.8,29,21,28.8,21
		L28.8,21z M25.4,15.4c0,0-0.2,0-0.2,0.2v4.8c0,0,0,0.2,0.2,0.2h3.3c0,0,0.2,0,0.2-0.2v-4.2l-0.7-0.8H25.4z"/>
	<polygon fill="#FFFFFF" points="29.1,16.3 28.1,16.3 28.1,15.2 28.5,15.2 28.5,15.9 29.1,15.9 	"/>
	<rect x="25.5" y="15.9" fill="#FFFFFF" width="0.7" height="0.4"/>
	<rect x="26.5" y="15.9" fill="#FFFFFF" width="1.4" height="0.4"/>
	<rect x="26.5" y="16.8" fill="#FFFFFF" width="2.1" height="0.4"/>
	<rect x="26.5" y="17.8" fill="#FFFFFF" width="2.1" height="0.4"/>
	<rect x="26.5" y="18.7" fill="#FFFFFF" width="2.1" height="0.4"/>
	<rect x="26.5" y="19.7" fill="#FFFFFF" width="2.1" height="0.4"/>
</g>
</svg>
