<?xml version="1.0" encoding="utf-8"?>
<!-- Generator: Adobe Illustrator 18.1.1, SVG Export Plug-In . SVG Version: 6.00 Build 0)  -->
<!DOCTYPE svg PUBLIC "-//W3C//DTD SVG 1.1//EN" "http://www.w3.org/Graphics/SVG/1.1/DTD/svg11.dtd">
<svg version="1.1" id="Layer_1" xmlns="http://www.w3.org/2000/svg" xmlns:xlink="http://www.w3.org/1999/xlink" x="0px" y="0px"
	 viewBox="-40 0 400 160" enable-background="new -40 0 400 160" xml:space="preserve">
<g>
	<path fill="#507B84" d="M80,80c-11.1,0-20.6-3.9-28.4-11.7C43.9,60.5,40,51.1,40,40c0-11.2,3.9-20.6,11.6-28.4
		C59.3,3.9,68.8,0,80,0c11.1,0,20.5,3.9,28.3,11.6C116.1,19.4,120,28.9,120,40c0,11-3.9,20.4-11.7,28.3C100.4,76.1,91,80,80,80z
		 M80,8.9c-8.7,0-16,3-22.1,9.1c-6,6-9.1,13.4-9.1,22.1c0,8.5,3,15.9,9.1,22c6,6.1,13.4,9.2,22.1,9.2c8.5,0,15.9-3.1,22-9.2
		s9.2-13.4,9.2-22c0-8.7-3.1-16-9.2-22.1C95.9,11.9,88.5,8.9,80,8.9z M66.7,51.1c-3.1,0-5.7-1.1-7.8-3.3c-2.2-2.2-3.3-4.8-3.3-7.8
		c0-3.1,1.1-5.7,3.3-7.8s4.8-3.3,7.8-3.3s5.7,1.1,7.8,3.3c2.2,2.2,3.3,4.8,3.3,7.8c0,3.1-1.1,5.7-3.3,7.8
		C72.3,50,69.7,51.1,66.7,51.1z M66.7,33.4c-1.8,0-3.4,0.6-4.7,1.9c-1.3,1.3-1.9,2.8-1.9,4.7s0.6,3.4,1.9,4.7s2.8,1.9,4.7,1.9
		c1.8,0,3.4-0.6,4.7-1.9s1.9-2.8,1.9-4.7s-0.6-3.4-1.9-4.7C70.1,34,68.5,33.4,66.7,33.4z M93.3,51.1c-3.1,0-5.7-1.1-7.8-3.3
		c-2.2-2.2-3.3-4.8-3.3-7.8c0-3.1,1.1-5.7,3.3-7.8c2.2-2.2,4.8-3.3,7.8-3.3c3.1,0,5.7,1.1,7.8,3.3c2.2,2.2,3.3,4.8,3.3,7.8
		c0,3.1-1.1,5.7-3.3,7.8C99,50,96.4,51.1,93.3,51.1z"/>
</g>
<g>
	<path id="github-icon_1_" fill="#507B84" d="M0,1c-22.1,0-40,17.9-40,40c0,17.7,11.5,32.7,27.4,38c2,0.4,2.6-0.9,2.6-1.9v-7.4
		C-21.1,72.1-23.4,65-23.4,65c-1.8-4.6-4.4-5.9-4.4-5.9c-3.6-2.5,0.3-2.4,0.3-2.4c4,0.3,6.1,4.1,6.1,4.1c3.6,6.1,9.4,4.3,11.6,3.3
		c0.4-2.6,1.4-4.3,2.5-5.3c-8.9-1-18.2-4.4-18.2-19.8c0-4.4,1.6-7.9,4.1-10.7c-0.4-1-1.8-5.1,0.4-10.6c0,0,3.4-1.1,11,4.1
		c3.2-0.9,6.6-1.3,10-1.3s6.8,0.5,10,1.3c7.6-5.2,11-4.1,11-4.1c2.2,5.5,0.8,9.6,0.4,10.6c2.6,2.8,4.1,6.4,4.1,10.7
		c0,15.4-9.4,18.7-18.3,19.7c1.4,1.2,2.7,3.7,2.7,7.4c0,5.4,0,9.7,0,11c0,1.1,0.6,2.3,2.7,1.9C28.6,73.6,40,58.7,40,41
		C40,18.9,22.1,1,0,1z"/>
</g>
<g>
	<title>Layer 1</title>
	<path fill="#507B84" d="M260,0h-40c-11,0-20,8.9-20,19.9v40.2c0,11,9,19.9,20,19.9h40c11,0,20-8.9,20-19.9V19.9
		C280,8.9,271,0,260,0L260,0z M272.6,60.1c0,6.9-5.6,12.5-12.6,12.5h-40c-6.9,0-12.6-5.6-12.6-12.5v-26h15.8c-1.2,2.4-1.8,5.2-1.8,8
		c0,10.4,8.5,18.9,19,18.9s19-8.5,19-18.9c0-2.9-0.6-5.6-1.8-8h15V60.1L272.6,60.1z M232.5,42.2c0-4.3,3.5-7.9,7.9-7.9
		c4.3,0,7.9,3.5,7.9,7.9c0,4.3-3.5,7.9-7.9,7.9C236.1,50,232.5,46.5,232.5,42.2L232.5,42.2z M272.6,26.8h-21.2
		c-3.1-2.2-6.9-3.5-11-3.5s-7.9,1.3-11,3.5h-22v-6.9c0-6.9,5.6-12.5,12.6-12.5h40c6.9,0,12.6,5.6,12.6,12.5V26.8L272.6,26.8
		L272.6,26.8z M264.6,11.8h-6.9c-1.2,0-2.2,1-2.2,2.2v6.8c0,1.2,1,2.2,2.2,2.2h6.9c1.2,0,2.2-1,2.2-2.2V14
		C266.8,12.8,265.8,11.8,264.6,11.8L264.6,11.8z"/>
</g>
<g>
	<title>Layer 1</title>
	<path fill="#507B84" d="M200,21.5c-0.4,7.8-5.8,18.4-16.3,31.9c-10.9,14.1-20.1,21.2-27.6,21.2c-4.7,0-8.6-4.3-11.8-12.9L137.8,38
		c-2.4-8.6-5-12.9-7.7-12.9c-0.6,0-2.7,1.3-6.3,3.8L120,24c3.9-3.5,7.8-6.9,11.7-10.4c5.3-4.5,9.2-6.9,11.8-7.2
		c6.2-0.6,10,3.6,11.5,12.7c1.6,9.8,2.6,15.9,3.2,18.3c1.8,8.1,3.8,12.2,5.9,12.2c1.7,0,4.2-2.6,7.5-7.9s5.1-9.3,5.4-12
		c0.5-4.5-1.3-6.8-5.4-6.8c-1.9,0-3.9,0.4-5.9,1.3c3.9-12.8,11.5-19,22.6-18.6C196.6,5.7,200.5,11.1,200,21.5L200,21.5z"/>
</g>
<g>
	<path fill="#FFFFFF" d="M80,160c-11.1,0-20.6-3.9-28.4-11.7C43.9,140.5,40,131.1,40,120c0-11.2,3.9-20.6,11.6-28.4
		C59.3,83.9,68.8,80,80,80c11.1,0,20.5,3.9,28.3,11.6c7.8,7.8,11.7,17.3,11.7,28.4c0,11-3.9,20.4-11.7,28.3
		C100.5,156.1,91,160,80,160z M80,88.9c-8.7,0-16,3-22.1,9.1c-6,6-9.1,13.4-9.1,22.1c0,8.5,3,15.9,9.1,22c6,6.1,13.4,9.2,22.1,9.2
		c8.5,0,15.9-3.1,22-9.2c6.1-6.1,9.2-13.4,9.2-22c0-8.7-3.1-16-9.2-22.1C95.9,91.9,88.5,88.9,80,88.9z M66.7,131.1
		c-3.1,0-5.7-1.1-7.8-3.3s-3.3-4.8-3.3-7.8s1.1-5.7,3.3-7.8s4.8-3.3,7.8-3.3c3.1,0,5.7,1.1,7.8,3.3c2.2,2.2,3.3,4.8,3.3,7.8
		s-1.1,5.7-3.3,7.8C72.4,130,69.7,131.1,66.7,131.1z M66.7,113.4c-1.8,0-3.4,0.6-4.7,1.9s-1.9,2.8-1.9,4.7c0,1.8,0.6,3.4,1.9,4.7
		s2.8,1.9,4.7,1.9c1.8,0,3.4-0.6,4.7-1.9s1.9-2.8,1.9-4.7c0-1.8-0.6-3.4-1.9-4.7S68.5,113.4,66.7,113.4z M93.3,131.1
		c-3.1,0-5.7-1.1-7.8-3.3c-2.2-2.2-3.3-4.8-3.3-7.8s1.1-5.7,3.3-7.8c2.2-2.2,4.8-3.3,7.8-3.3c3.1,0,5.7,1.1,7.8,3.3
		c2.2,2.2,3.3,4.8,3.3,7.8s-1.1,5.7-3.3,7.8C99,130,96.4,131.1,93.3,131.1z"/>
</g>
<g>
	<path id="github-icon_2_" fill="#FFFFFF" d="M0,81c-22.1,0-40,17.9-40,40c0,17.7,11.5,32.7,27.4,38c2,0.4,2.6-0.9,2.6-1.9v-7.4
		c-11.1,2.4-13.4-4.7-13.4-4.7c-1.8-4.6-4.4-5.9-4.4-5.9c-3.6-2.5,0.3-2.4,0.3-2.4c4,0.3,6.1,4.1,6.1,4.1c3.6,6.1,9.4,4.3,11.6,3.3
		c0.4-2.6,1.4-4.3,2.5-5.3c-8.9-1-18.2-4.4-18.2-19.8c0-4.4,1.6-7.9,4.1-10.7c-0.4-1-1.8-5.1,0.4-10.6c0,0,3.4-1.1,11,4.1
		c3.2-0.9,6.6-1.3,10-1.3s6.8,0.5,10,1.3c7.6-5.2,11-4.1,11-4.1c2.2,5.5,0.8,9.6,0.4,10.6c2.6,2.8,4.1,6.4,4.1,10.7
		c0,15.4-9.4,18.7-18.3,19.7c1.4,1.2,2.7,3.7,2.7,7.4c0,5.4,0,9.7,0,11c0,1.1,0.6,2.3,2.7,1.9c15.9-5.3,27.3-20.3,27.3-38
		C40,98.9,22.1,81,0,81z"/>
</g>
<g>
	<title>Layer 1</title>
	<path fill="#FFFFFF" d="M260,80h-40c-11,0-20,8.9-20,19.9v40.2c0,11,9,19.9,20,19.9h40c11,0,20-8.9,20-19.9V99.9
		C280,88.9,271,80,260,80L260,80z M272.6,140.1c0,6.9-5.6,12.5-12.6,12.5h-40c-6.9,0-12.6-5.6-12.6-12.5v-25.9h15.8
		c-1.2,2.4-1.8,5.2-1.8,8c0,10.4,8.5,18.9,19,18.9s19-8.5,19-18.9c0-2.9-0.6-5.6-1.8-8h15V140.1L272.6,140.1z M232.5,122.2
		c0-4.3,3.5-7.9,7.9-7.9c4.3,0,7.9,3.5,7.9,7.9c0,4.3-3.5,7.9-7.9,7.9C236.1,130,232.5,126.5,232.5,122.2L232.5,122.2z M272.6,106.8
		h-21.2c-3.1-2.2-6.9-3.5-11-3.5s-7.9,1.3-11,3.5h-22v-6.9c0-6.9,5.6-12.5,12.6-12.5h40c6.9,0,12.6,5.6,12.6,12.5V106.8L272.6,106.8
		L272.6,106.8z M264.6,91.8h-6.9c-1.2,0-2.2,1-2.2,2.2v6.8c0,1.2,1,2.2,2.2,2.2h6.9c1.2,0,2.2-1,2.2-2.2V94
		C266.8,92.8,265.8,91.8,264.6,91.8L264.6,91.8z"/>
</g>
<g>
	<title>Layer 1</title>
	<path fill="#FFFFFF" d="M200,101.5c-0.4,7.8-5.8,18.4-16.3,31.9c-10.9,14.1-20.1,21.2-27.6,21.2c-4.7,0-8.6-4.3-11.8-12.9
		l-6.5-23.7c-2.4-8.6-5-12.9-7.7-12.9c-0.6,0-2.7,1.3-6.3,3.8L120,104c3.9-3.5,7.8-6.9,11.7-10.4c5.3-4.5,9.2-6.9,11.8-7.2
		c6.2-0.6,10,3.6,11.5,12.7c1.6,9.8,2.6,15.9,3.2,18.3c1.8,8.1,3.8,12.2,5.9,12.2c1.7,0,4.2-2.6,7.5-7.9s5.1-9.3,5.4-12
		c0.5-4.5-1.3-6.8-5.4-6.8c-1.9,0-3.9,0.4-5.9,1.3c3.9-12.8,11.5-19,22.6-18.6C196.6,85.7,200.5,91.1,200,101.5L200,101.5z"/>
</g>
<path fill="none" stroke="#507B84" stroke-width="6" stroke-miterlimit="10" d="M336.8,3h-38.1c0,0-4.9,0.4-4.9,4.9s0,64.2,0,64.2
	s0.6,4.9,4.9,4.9s44.7,0,44.7,0s4.9-0.6,4.9-4.9c0-4.3,0-57.5,0-57.5L336.8,3z"/>
<polyline fill="none" stroke="#507B84" stroke-width="6" stroke-miterlimit="10" points="348.4,14.6 336.8,14.6 336.8,3 "/>
<line fill="none" stroke="#507B84" stroke-width="6" stroke-miterlimit="10" x1="299.9" y1="14.6" x2="309.5" y2="14.6"/>
<line fill="none" stroke="#507B84" stroke-width="6" stroke-miterlimit="10" x1="312.8" y1="14.6" x2="331.2" y2="14.6"/>
<line fill="none" stroke="#507B84" stroke-width="6" stroke-miterlimit="10" x1="312.8" y1="27.2" x2="340.2" y2="27.2"/>
<line fill="none" stroke="#507B84" stroke-width="6" stroke-miterlimit="10" x1="312.8" y1="39.8" x2="340.2" y2="39.8"/>
<line fill="none" stroke="#507B84" stroke-width="6" stroke-miterlimit="10" x1="312.8" y1="52.5" x2="340.2" y2="52.5"/>
<line fill="none" stroke="#507B84" stroke-width="6" stroke-miterlimit="10" x1="312.8" y1="65.1" x2="340.2" y2="65.1"/>
<path fill="none" stroke="#FFFFFF" stroke-width="6" stroke-miterlimit="10" d="M336.8,83h-38.1c0,0-4.9,0.4-4.9,4.9
	c0,4.5,0,64.2,0,64.2s0.6,4.9,4.9,4.9s44.7,0,44.7,0s4.9-0.6,4.9-4.9c0-4.3,0-57.5,0-57.5L336.8,83z"/>
<polyline fill="none" stroke="#FFFFFF" stroke-width="6" stroke-miterlimit="10" points="348.4,94.6 336.8,94.6 336.8,83 "/>
<line fill="none" stroke="#FFFFFF" stroke-width="6" stroke-miterlimit="10" x1="299.9" y1="94.6" x2="309.5" y2="94.6"/>
<line fill="none" stroke="#FFFFFF" stroke-width="6" stroke-miterlimit="10" x1="312.8" y1="94.6" x2="331.2" y2="94.6"/>
<line fill="none" stroke="#FFFFFF" stroke-width="6" stroke-miterlimit="10" x1="312.8" y1="107.2" x2="340.2" y2="107.2"/>
<line fill="none" stroke="#FFFFFF" stroke-width="6" stroke-miterlimit="10" x1="312.8" y1="119.8" x2="340.2" y2="119.8"/>
<line fill="none" stroke="#FFFFFF" stroke-width="6" stroke-miterlimit="10" x1="312.8" y1="132.5" x2="340.2" y2="132.5"/>
<line fill="none" stroke="#FFFFFF" stroke-width="6" stroke-miterlimit="10" x1="312.8" y1="145.1" x2="340.2" y2="145.1"/>
</svg>
